<svg width="162" height="30" fill="none" xmlns="http://www.w3.org/2000/svg"><path d="M2.97 26.97V6.09h1.17l14.58 14.19V6.09h1.11v20.88H2.97zm31.337-21.3c1.56 0 3 .39 4.32 1.17 1.32.76 2.36 1.8 3.12 3.12a8.34 8.34 0 0 1 1.17 4.32v4.56c0 1.56-.39 3-1.17 4.32a8.57 8.57 0 0 1-3.12 3.15 8.507 8.507 0 0 1-4.32 1.14c-1.56 0-3-.38-4.32-1.14a8.805 8.805 0 0 1-3.15-3.15 8.507 8.507 0 0 1-1.14-4.32v-4.56c0-1.56.38-3 1.14-4.32a8.57 8.57 0 0 1 3.15-3.12 8.34 8.34 0 0 1 4.32-1.17zm-7.5 13.17c0 1.36.33 2.62.99 3.78a7.76 7.76 0 0 0 2.73 2.73c1.16.66 2.42.99 3.78.99 1.36 0 2.61-.33 3.75-.99a7.447 7.447 0 0 0 2.73-2.73 7.343 7.343 0 0 0 1.02-3.78v-4.56c0-1.36-.34-2.61-1.02-3.75a7.16 7.16 0 0 0-2.73-2.73 7.185 7.185 0 0 0-3.75-1.02c-1.36 0-2.62.34-3.78 1.02a7.447 7.447 0 0 0-2.73 2.73c-.66 1.14-.99 2.39-.99 3.75v4.56zM62.044 6.81c1.2.56 2.14 1.39 2.82 2.49.7 1.1 1.05 2.32 1.05 3.66 0 1.56-.48 2.96-1.44 4.2a6.663 6.663 0 0 1-3.63 2.43l5.31 7.41h-1.32l-5.13-7.2-.96.03h-7.53V27h-1.11V6.12h7.95c.88 0 1.63.06 2.25.18.64.1 1.22.27 1.74.51zm-3 11.91c1.04 0 2-.26 2.88-.78a5.87 5.87 0 0 0 2.1-2.1c.52-.88.78-1.84.78-2.88 0-1.16-.31-2.21-.93-3.15-.6-.94-1.44-1.64-2.52-2.1-.78-.32-1.88-.48-3.3-.48h-6.84v11.49h7.83zM73.401 27h-1.11V6.12h1.2l7.29 12.87 7.26-12.87h1.11V27h-1.11V8.34l-6.75 11.91h-1.05l-6.84-12.06V27zm29.957-20.88h1.17l8.58 20.88h-1.2l-2.82-6.9h-10.29l-2.85 6.9h-1.17l8.58-20.88zm-4.11 12.9h9.39l-4.71-11.46-4.68 11.46zM118.975 27V6.12h1.17l14.58 14.16V6.12h1.11V27h-1.11v-5.16l-14.64-14.28V27h-1.11zm23.207 0V6.12h1.17l14.58 14.16V6.12h1.11V27h-1.11v-5.16l-14.64-14.28V27h-1.11z" fill="#fff"/></svg>